<?xml version="1.0" encoding="UTF-8"?>
<svg id="Layer_2" data-name="Layer 2" xmlns="http://www.w3.org/2000/svg" viewBox="0 0 1432.99 1605.05">
  <defs>
    <style>
      .cls-1 {
        fill: #f9cb3a;
      }
    </style>
  </defs>
  <g id="Layer_1-2" data-name="Layer 1">
    <g>
      <path class="cls-1" d="M361.66,344.25c25.23-5.27,50.88-9.37,76.41-13.1,144.43-21.07,289.08-28.8,434.85-16.14,70.08,6.09,139.82,17.37,209.11,28.89,1.56,1.22,3.05,16.3,3.39,19.61,12.71,123.8,8.27,295.15-41.82,410.17-59.07,135.64-192.21,217.44-320.77,278.29-21.18-9-42.02-19.6-62.28-30.58-93.68-50.79-191.64-118.88-243.64-214.36-58.75-107.86-66.23-244.79-62.44-365.48,1.02-32.52,1.84-65.15,7.19-97.3ZM390.42,375c-8.42,111.5-9.72,229.29,23.51,337,43.61,141.36,150.54,218.33,276.48,283.52,5.53,2.86,30.08,15.98,34.32,15.29,98.4-50.12,202.2-108.43,263.12-203.9,73.84-115.73,75.69-283.43,66.59-416.43-.38-5.49,2.32-13.66-3.75-15.25-18.51-4.87-43.59-8.03-62.93-11.07-163.63-25.73-325.45-27.83-489.69-6.02-36.01,4.78-71.73,11.6-107.64,16.86Z"/>
      <path class="cls-1" d="M496.92,127.01c6.39.76,20.97,7.88,25.49,12.51,8.23,8.42,5.08,12.99,6.03,22.97,1.5,15.86,14.98,34.59,31.13,37.87,26.52,5.38,40.02-9.96,41.84-34.86,1.2-16.37.03-33.23,2.02-49.49l19.18,36.3c40.72,65.6,108.19-8.92,61.32-61.32-4.59-5.13-10.49-8.31-14.38-13.31L720.93,0l52.36,76.73-.79,2.83c-26,19.03-37.83,46.13-21.6,76.46,19.43,36.32,58.64,23.98,73.32-8.71l16.18-31.3,2.05,26.45c-.06,18.51-2.3,46.83,17.96,56.04,23.36,10.62,50.46-7.9,53.74-32.26.72-5.37-.5-11.19.69-16.31,3.57-15.41,31.28-25.48,45.57-22.92l-57.94,131.6c-13.12-1.75-25.85-5.89-38.85-8.31-105.61-19.69-217.52-16.53-321.81,8.66l-59.4-131.96c4.64.39,9.97-.54,14.5,0ZM718.15,181.24c-12.22,2.53-12.1,22.5,2.03,24.55,18.67,2.7,19.97-29.1-2.03-24.55Z"/>
      <path class="cls-1" d="M982.26,1157.18l50.99,125.5c3.11,6.19,5.9,13.1,11.84,17.16,5.02,3.43,10.29,1.81,6.36,10.73h-59.04s-.85-7.43-.85-7.43c5.21-1.35,9.27-3.53,8.91-9.6-.18-2.99-9.65-29.22-11.02-30.05l-49.06-.02c-1.37.91-11,28.6-10.99,31.05.02,9.23,15.29,5.08,9.99,16.45-12.02-1.43-24.35-1.13-36.5-1.01-7.44.07-15.04,1.71-22.99,1.08-31.16-2.45-37.79-26.84-52.04-48.96-5.71-8.85-14.28-22.8-26.47-17.42.84,12.92-1.02,26.93.18,39.71,1.09,11.6,4.65,14.29,14.44,19.63l-.69,5.88-58.87,1.12c-1.94-10.21,2.86-7.53,7.39-12.1,7.29-7.36,4.27-31.73,4.56-42.44.62-22.86,2.62-54.72-.07-76.85-.39-3.17-1.82-7.67-3.88-10.12-3.34-3.97-12.2-3.81-7.02-11l75.5-.47c50.01,4.08,56.15,59.2,12.53,77.48,14.78,15.78,24.3,36.61,38.01,52.97,3.34,3.99,10,11.5,15.5,11.43,5.45-.08,11.68-11.66,13.65-16.22l51.98-126.51h17.68ZM801.42,1228.01c22.72,4.97,43.07-9.54,38.55-34.05-3.71-20.07-21.28-22.41-38.55-18.95v53ZM966.42,1198l-2.23,1.28-16.76,45.72c11.95,1.64,23.91-.73,36,0l-17-47Z"/>
      <path class="cls-1" d="M187.22,1155.31c55.97-5.03,90.1,33.6,86.19,88.19-3.46,48.29-45.15,75.47-91.37,69.39-89.66-11.8-85.41-149.44,5.18-157.58ZM189.2,1172.29c-56.07,6.77-48.21,144.46,19.77,122.77,43.6-13.91,42.31-130.27-19.77-122.77Z"/>
      <path class="cls-1" d="M889.26,296.84c-2.36.47-4.83.24-7.21.04-19.82-1.68-41.76-7.51-62.25-9.74-86.64-9.41-177.11-4.72-262.76,9.75l-3.38-1.13-8.17-22.18c.41-1.19,1.48-1.2,2.44-1.57,7.88-3.04,27.82-5.41,37.15-6.84,64.65-9.95,134.58-12.66,199.83-8.15,37.53,2.59,75.01,7.82,111.84,15.17l1.52,1.29-9.02,23.36Z"/>
      <path class="cls-1" d="M1290.42,1158.01c3.13,10.89,1.89,22.6,2.86,33.86l-8.72,1c-1.41-6.77-7.91-17.86-15.64-17.86h-39.5v47h32.5c1.56,0,6.22-3.05,7.54-4.46,3.86-4.12,3.67-12.61,11.96-7.04v41.5l-8.06-.44c-.01-3.4-6.37-12.56-9.44-12.56h-34.5v46.5c0,3.27,2.05,6.91,5.56,7.41,7.85,1.12,35.24.87,42.13-1.72,9.95-3.74,12.82-12.65,18.33-20.73l7.99.55-8.01,39h-112c-2.04-9.21,3.89-7.45,7.93-11.57s4.78-12.41,5.12-17.88c2.01-31.89-1.59-65.91-.07-98.03-.73-4.02-1.08-8.08-3.54-11.46-4.27-5.85-11.79-3.79-9.44-13.06h107Z"/>
      <path class="cls-1" d="M390.42,1310.01l1.19-7.81c9.04-.99,13.14-10.49,16.66-17.83,18.27-38,30.84-80.93,48.97-119.03.71-1.48,2.95-6.7,3.66-7.34,1.7-1.52,17.12-2.25,18.95,1.07l52.38,129.62c1.97,2.83,3.14,5.88,5.64,8.36,4.88,4.86,15.06,4.49,9.08,13.71l-57.56-.26c-6.99-8.69,7.57-8.05,7.91-14.94.09-1.9-9.59-31.48-11.03-32.41l-48.88.35c-1,.5-1.22,1.44-1.74,2.26-1.65,2.62-9.04,23.81-9.26,26.77-.93,12.24,12.02,6.24,10.02,17.49h-46ZM479.41,1246.01l-17.49-48.99-18.45,47.42c.73,1.56,1.96,1.46,3.39,1.62,6.83.79,19.36-1.14,27.1-1.1,2.03,0,3.61.08,5.44,1.05Z"/>
      <path class="cls-1" d="M94.26,1164.17l.11,32.79-7.95.6c-6.73-17.33-19.47-29.01-39.23-26.29-17.42,2.4-24.54,21.36-10.67,33.15,21.43,18.22,59.39,17.21,67.45,51.55,12.58,53.57-51.34,67-90.52,51.52-3.85-1.52-12.58-4.72-13.08-8.92-1.19-10.11,1.04-22.51.02-32.9l8.88-1.49c5.62,14.92,12.37,28.32,29.12,32.36,18.83,4.54,40.34-2.48,35.6-25.59-3.56-17.37-36.5-24.81-50.48-33.52-15.72-9.79-23.66-22.93-22.06-41.9,3.76-44.7,61.17-47.94,92.82-31.36Z"/>
      <path class="cls-1" d="M1082.42,1158.01l-.44,7.06-8.3,3.19-1.05,6.99c11.32,29.96,21.55,60.66,33.81,90.23.51,1.23.65,2.73,2.47,2.53l35.29-93.79c1.87-9.44-12.77-6.25-9.7-16.14l42.92-.08c1.94,7.96-5.61,8.47-9.45,13.06-21.33,45.62-38.17,93.35-57.7,139.79l-18.96-.46c-2.04-5.97-4.95-11.59-7.38-17.4-14.93-35.65-27.78-75.11-44.34-109.66-1.91-3.99-4.65-10.27-7.64-13.36-4.32-4.46-11.04-3.82-9.53-11.96h60Z"/>
      <path class="cls-1" d="M305.92,1175.01c-11.5,1.21-19.16,8.63-21.62,19.88-1.24.88-9.02-.42-8.89-3.37,1.38-9.18.19-20.06,2.09-28.94.35-1.63.8-3.82,2.59-4.41l131.2-.02,1.99,34.72-9.74,1.02c-1.6-6.52-5.34-13.99-11.82-16.68-.98-.41-7.26-2.2-7.8-2.2h-23.5c1.3,9.18-.13,18.83.01,28.49.36,25.23-1.44,58.91,1,83,.36,3.57,1.69,8.2,4.13,10.87,3.97,4.36,11.99,4.14,8.86,12.64h-61c-2.37-9.54,5.22-7.06,9.85-12.65,1.79-2.15,4.15-9.29,4.15-11.85v-110.5c-6.9.52-14.72-.71-21.5,0Z"/>
      <path class="cls-1" d="M639.92,1175.01c-8.98,1.49-15.48,10.9-17.97,19.03-2.19,2.31-6.48-.68-9.51-.04.37-4.59,1.95-35.27,3.66-36.03l130.92.95,1.38,2.62,1.97,32.42c-11.94,3.16-9.15-2.51-13.75-9.65-1.49-2.32-4.03-5.23-6.49-6.51-.9-.47-7.75-2.79-8.21-2.79h-23.5v108.5c0,.42,1.2,6.7,1.44,7.56,3.07,10.95,15.79,9.68,13.45,18.33-.66,2.45-2.18.61-2.39.61h-60.5l.11-6.89c6.24-.93,14.89-7.87,14.89-14.61v-113.5c-7.75.9-18.11-1.22-25.5,0Z"/>
      <path class="cls-1" d="M1376.92,1158.01c1.81.56,1.99,4.43,1.01,6.02-.77,1.26-6.52,3.17-8.45,4.55-5.22,3.73-6.5,8.75-7.05,14.95-2.77,31.26,2.07,66.35-.05,98.02.47,3.16.75,8.53,3.73,10.27s25.95,1.65,30.8,1.18c15.94-1.53,22.02-11.18,27.67-24.83l8.41.77-6.57,41.07h-109l.12-7.89c6.26-.53,10.67-5.84,11.65-11.85,2.82-17.36.31-36.37.2-53.72-.11-17.07,2.39-44.36-.02-59.98-1.61-10.43-13.88-8.76-12.94-18.56h60.5Z"/>
      <path class="cls-1" d="M912.42,1392.01c2.56,4.5-7,6.47-7,8.5v24.5l37,1v-24.5c0-1.63-4.55-6.06-6.83-5.65l-.17-3.85h30c1.78,6.63-6.85,3.34-6.91,9.56,1.09,18.34-1.77,38.93-.14,56.99.76,8.43,6.14,5.76,7.05,12.45h-30c-.63-4.23,7-6.5,7-10.5v-27.5h-36c-1.06,6.47-2.73,27.1,1.29,31.72,1.92,2.21,6.15,1.12,4.71,6.28h-30c-.47-4.18,4.8-4.93,5.93-6.55.94-1.34,1.88-7.07,2.07-9.03,1.23-12.69,1.06-37.07-.02-49.9-.61-7.28-2.56-7.18-7.98-11.04l1.5-2.49h28.5Z"/>
      <path class="cls-1" d="M1037.22,1390.31c58.22-4.05,59.09,81.74,3.59,82.59-54.28.84-57.12-78.87-3.59-82.59ZM1036.18,1398.27c-26.62,3.79-25.6,56.6-3.48,64.96,40.25,15.21,42.68-70.54,3.48-64.96Z"/>
      <path class="cls-1" d="M734.42,1447.01v-44.5c0-4.49-7.58-6-8-8.01l1.5-2.49h21l1.54,2.52-.5,1.52c-1.37,1.33-3.8,1.64-5.1,2.9-1.46,1.42-2.32,13.26-2.48,16.52-.84,16.77,1.94,37,.09,53.09-.63,5.49-4.11,2.96-7.97,1.87l-48.08-59.42v50.5c0,3.15,7.94,6.13,7.97,6.99l-.97,2.51h-24c-.62-4.27,4.46-4.64,6.42-8.08.79-1.4,1.27-2.91,1.49-4.51,1.52-10.72,1.09-38.67.13-49.94-.27-3.11-1.02-8.61-3.65-10.37s-5.92-.18-5.39-6.09h22.5l43.5,55Z"/>
      <path class="cls-1" d="M499.42,1392.01c2.56,4.5-7,6.47-7,8.5v24.5c1.75.44,2-.72,3.01-1.49,7.89-6.05,15.33-16.49,22.53-23.52,2.09-3.8-5.2-4.9-1.03-7.98h23.5l-.46,4.04c-14.1,4.63-22.71,17.98-33.6,27.41l-.98,2.05,27.01,31.03c2.64,2.34,4.89,5.14,7.52,7.48,2.49,2.2,7.25,2.36,6.5,7h-20.5c-4.43,0-26.95-33.61-33.5-37v28.5l7.97,5.99-.97,2.51h-30l.17-3.85c9.91-1.81,6.41-12.89,6.84-20.64.69-12.53,2.34-28.47.88-40.9-.59-5.05-1.93-9.51-7.76-9.73l-.13-3.88h30Z"/>
      <path class="cls-1" d="M745.92,1533.01c6.49.88,15.35,6.62,16.44,13.56,1.01,6.47.39,12.76-4.4,17.48-2.38,2.34-7.8,3.82-7.16,7.04,6.74,6.75,10.91,17.94,17.63,24.41,1.6,1.54,7.57,4.56,7.75,5.98.46,3.68-6.53,2.7-9.25,2.51-7.96-.55-10.99-2-15.93-8.07-6.78-8.33-9.08-22.69-21.01-23.83-1.2.52-1.28,1.21-1.48,2.35-.27,1.56.69,17.23.96,19.01.58,3.79,3.46,5.69,6.46,7.55.98.55-.9,2.01-1.02,2.01h-25.5c-.85-4.01,3.75-3.59,5.24-7.26s1.47-45.48.67-51.15c-.99-7.03-6.35-5.45-5.91-11.59,11.38,1.11,25.46-1.49,36.5,0ZM729.42,1540l-.86,24.37c5.7,4.36,16.5.96,18.39-6.33,3.54-13.62-4.75-19.59-17.53-18.03Z"/>
      <path class="cls-1" d="M291.42,1462.01h29.5c4.34,0,10.88-15.54,14.49-12-.8,6.76-.38,15.43-4.49,21h-60l-1.51-2.44,43.01-68.56h-26.5l-8.98,10.92-3.19-2.36,1.72-16.51,57,.39c.75.5.93,1.21,1,2.07.51,5.91-38.94,56.86-42.05,67.49Z"/>
      <path class="cls-1" d="M360.92,1471.01l-1.05-2.02,5.55-5.48c12.62-23.08,21.05-48.45,31.61-72.56l8.28.18c8.86,21.25,16.21,44.6,26.25,65.24,1.15,2.37,2.56,5.85,4.31,7.69,2.73,2.87,6.08,2.05,6.55,6.95h-32l.17-3.84c11.58-2.56.69-14.29-.05-21.58l-1.58-.64c-4.52.9-22.7-1.4-25.07,1.03-1.11,1.14-5.45,13.56-5.49,15.54-.13,5.85,5.47,4.22,5.02,9.49h-22.5ZM388.92,1437.01h17.5l-8.51-25.01c-1.7-.22-1.99,1.28-2.55,2.45-3.01,6.21-4.28,14.22-7.54,20.49l1.11,2.07Z"/>
      <path class="cls-1" d="M1164.43,1411.01l-4.84-.17c-2.61-18.37-35.68-15.86-28.4,1.91,3.55,8.67,28.06,11.85,34.42,24.57,7.87,15.74-1.15,32.79-18.68,34.69-6.6.72-28.94.02-30.49-8.53-.41-2.26-1.17-10.72-1.11-13.02.1-3.44,1.75-3.26,5-3.39,2.95,6.96,7.49,15.64,15.68,16.84,17.64,2.59,25.77-12.33,10.11-22.11-12.1-7.56-28.88-9.82-29.13-28.3-.3-22.47,24.86-27.28,42.25-20.82,6.87,2.55,4.2,12.15,5.19,18.32Z"/>
      <path class="cls-1" d="M597.42,1392.01c1.57,5.14-3.91,4.05-4.59,8.07l15.09,26.91c1.43,0,13.89-22.62,14.31-24.73.85-4.24-1.12-5.15-3.81-7.77l1.5-2.49h21.5l-.17,3.84c-3.64.93-5.92,3.47-8.25,6.24-3.4,4.05-19.17,29.65-20.16,33.84s-.99,19.84-.19,24.33,3.17,6.38,7.63,6.86l.13,3.88h-32c-.42-5.57,6.48-3.86,7.79-9.71.77-3.47.72-20-.01-23.56-.62-3-20.59-36.11-23.28-38.72-2.37-2.31-7.28-2.79-6.5-7h31Z"/>
      <path class="cls-1" d="M848.92,1392.01l1.35,1.65c-.9,5.6,3.42,12.54-.34,17.32-2.85.16-5.32-10.97-12.01-10.97h-14.5v59.5c0,4.31,8.82,7.08,8,11.5h-32c-.75-5.17,8-5.6,8-10.5v-60.5h-15.5c-3.11,0-7.57,10.25-9.49,10.5-.95.13-2.01-.37-2.01-1v-16l1.5-1.5h67Z"/>
      <path class="cls-1" d="M820.42,1533.01l-.17,3.84c-2.42.91-5.37,1.68-5.81,4.68,1.21,12.81-1.91,29.18.42,41.54,3.39,17.97,31.79,18.08,34.47-1.65,1.02-7.47,1.06-31.44,0-38.86-.83-5.82-6.82-3.7-6.91-9.55h19.5c.84,0,1.82,2.07,1.4,3.39-.55,1.74-5.05,2.11-5.84,7.17-3.1,19.82,8.86,53.43-18.86,60.14-16.79,4.06-36.56-1.62-38.24-21.16-.78-9.09,2.19-37.4-1.93-43.07-.29-.4-8.45-6.46-3.53-6.46h25.5Z"/>
      <path class="cls-1" d="M553.92,1533.01c7.12,1.11,15.47,7.6,17.06,14.94,4.47,20.76-16.12,29.4-33.56,27.05.9,6.34-2.19,17.94,2.35,22.66,1.96,2.03,5.67,1.44,4.66,5.35h-28c-1.17-4,3.12-3.38,4.71-5.28,1.44-1.73,2.18-16.35,2.32-20.16.19-5.22.1-35.31-1.96-38.13-.97-1.33-4.08-2.11-5.07-3.94l1.5-2.49c11.01,1.22,25.44-1.64,36,0ZM553.08,1543.35c-2.97-3.03-11.58-4.75-15.54-3.21l-.11,28.85c7.03.42,14.77-.69,17.47-8,1.93-5.24,2.34-13.4-1.82-17.64Z"/>
      <path class="cls-1" d="M1054.42,1549.01c-5.7,1.59-4.01-3.98-7.03-6.48-.67-.55-5.92-2.52-6.47-2.52h-15l-1.5,1.5v21.5h16.5c.53,0,7.5-9.07,7.5-4.5v17.5l-3.85-.17c.3-2.1-2.98-5.83-4.65-5.83h-15.5v22.5c0,.28,1.55,2.73,2,3,6.52.54,18.2,2.09,23.52-2.48,2.05-1.76,4.51-10.27,7.5-7.55,1.86,1.69-.91,15.21-2.52,17.53h-50.5c.35-5.89,5.36-3.32,6.06-10.44,1.54-15.7-1.21-34-.12-50-1.03-6.55-7.29-3.33-5.94-9.56h48.5l1.5,1.5v14.5Z"/>
      <path class="cls-1" d="M974.67,1550.74c-2.5-2.77-3.69-9.04-8.5-10.98-5.13-2.06-14.56-1.38-16.98,4.5-5.06,12.3,15.24,16.14,22.56,20.93,19.62,12.82,10.37,37.98-11.83,39.81-4.88.4-18.65-1.35-22.05-4.93-2.08-2.2-3.16-11.66-3.23-14.86-.25-11.03,10.48,7.23,11.76,8.34,5.55,4.84,18.02,6.34,21.9-1.16,7.34-14.19-16.19-18.06-23.8-23.94-14.05-10.87-9.39-33.58,8.69-36.17,4.94-.71,24.13-.73,25.24,5.24.49,2.61,1.03,18.55-3.76,13.23Z"/>
      <path class="cls-1" d="M680.53,1552.95c-1.45-6.52-8.09-12.94-14.69-13.86-32.83-4.56-35.06,48.02-10.38,56.38,7.82,2.65,17.67,2.03,23.52-4.42,2.61-2.88,2.15-7.15,7.45-6.04-1.57,13.27-1.4,16.25-14.77,18.72-30.09,5.56-50.36-11.22-47.21-42.21,2.54-25.06,31.04-34.63,52.74-27.77,11.81,3.73,5.32,7.44,8.17,17.66l-4.82,1.55Z"/>
      <path class="cls-1" d="M406.42,1533.01l.06,3.43c-.34,1.18-5.92-.32-5.03,6.98.44,3.58,11.71,32.62,13.91,37.15.57,1.18.82,2.67,2.55,2.45l15.35-40.77c.52-4.82-6.64-3.92-4.84-9.24h19.5l1.05,2.02c-4.38,4.16-6.11,6.96-8.72,12.31-8.79,18.05-14.54,37.68-22.76,55.99-1.19,1.43-7.19,2.83-7.9,0l-25.74-63.25c-1.48-.09-9.54-7.07-4.93-7.07h27.5Z"/>
      <path class="cls-1" d="M911.42,1533.01c.74,4.44-5.25,5.69-5.98,9.52,1.17,16.01-1.63,34.32-.08,50.04.7,7.15,5.77,4.9,6.06,10.44h-27l.62-3.08c4.75-.89,5.75-4.25,6.26-8.54,1.28-10.59.95-32,.16-42.93-.17-2.42-.39-6.38-1.59-8.41-1.51-2.54-6.42-2.75-5.45-7.05h27Z"/>
      <path class="cls-1" d="M494.42,1533.01c.76,4.93-5.85,4.67-5.94,9.56,1,16.09-1.55,34.15-.11,49.98.16,1.79.11,3.24,1.14,4.85,1.88,2.93,6.01,1.26,4.9,5.6h-27c0-4.33,1.49-2.49,3.37-4.1,2.81-2.39,3.38-7.69,3.66-11.36.55-7.04.83-43.91-1.99-48.09-1.94-2.88-6.23-2.06-4.04-6.45h26Z"/>
      <path class="cls-1" d="M1134.42,1564.01v9s-32,0-32,0l1.21-7.78c.99-.06,2.77-1.21,3.29-1.21h27.5Z"/>
      <path class="cls-1" d="M305.42,1573.01l.44-8.06c1.89-2.72,11.32.1,14.06.06,4.72-.06,10.65-2.13,15.86-.86,2.53.83,2.39,7.33.14,8.86h-30.5Z"/>
      <path class="cls-1" d="M879.42,644.01h63.5c.68,0,10.19-2.93,11.5-3.5,12.54-5.41,19.29-18.86,25.2-30.29l12.67,1.91-9.49,58.93-167.89-1.05c-1.86-3.94-2.28-7.99.33-11.69,35.02-59.02,74.28-115.86,108.98-175.02,1.44-2.46,6.82-11.83,7.2-13.82.48-2.53-.7-.96-1.51-1.02-5.12-.37-11.81-.05-17.18-.09-11.07-.09-34.06-.96-42.99,3.45-12.14,5.99-15.1,25.54-18.28,27.73-2.15,1.48-15.11-.86-14.09-6,3.57-15.1,3.45-31.84,6.29-46.86.19-1,.5-2.18,1.43-2.77l147.89-.98c3.46-.29,3.86,2.95,4.34,5.59l-117.89,195.47Z"/>
      <path class="cls-1" d="M472.77,547.66c-21.65-22.61-22.2-61.82-1.32-85.12,25.95-28.96,74.88-30.35,109.22-17.27,18.48,7.04,11.74,10.91,12.71,28.29.43,7.67,1.98,15.89,1.57,23.46-1.15,2.24-10.41,3.82-12.54,2.51-1.15-.71-9.47-18.45-13.96-23.04-15.62-15.93-48.12-21.81-63.44-2.39-14.51,18.4-1.23,35.66,15.39,45.43,32.41,19.06,86.38,29.54,90.05,75.95,6.12,77.35-76.97,93.35-135.28,70.28-5.02-1.99-17.05-6.38-17.8-12.2-1.33-10.27.33-25.12.09-36.09-.11-4.98-3.86-9.62,3.12-11.79,2.68-.83,7.04-1.46,9.41.25,1.77,1.28,8.43,16.25,11.01,19.98,13.06,18.87,31.89,26.66,54.8,23.98,28.08-3.28,40.9-35.88,19.08-54.86-22.22-19.33-59.49-23.74-82.12-47.38Z"/>
      <path class="cls-1" d="M925.42,755.02c-10.28,28.11-26.03,54.18-50.68,71.81-65.49,46.81-146.67,1.84-217.77-1.86-33.66-1.75-67.03,4.96-98.54,16.03,26.07-25.79,67.62-37.31,103.51-40.98,44.54-4.56,77.82,6.53,120,8.98,14.89.87,30.52-.61,45.49,0-.18-1.46-4.36-1.69-5.62-1.87-65.1-9.14-126.78-27.94-192.59-9.84-16.11,4.43-31.48,11.2-46.78,17.71,41.48-39.66,104.04-54.95,160.54-52.03,28.02,1.45,55.91,8.56,83.97,10.03,34.09,1.79,67.52-3.86,98.49-17.98Z"/>
      <path class="cls-1" d="M694.42,469.01c-14.83.48-33.22-2.66-46.98,3.52-9.94,4.46-16.93,17.18-19.06,27.44-3.49.35-12.47.35-14.46-2.94-1.78-2.94,2.9-31.69,3.49-37.53.5-4.94-2.16-15.12,3.71-16.24l194.78-.22c7.16,1.33,4.16,16.51,4.48,22.52.29,5.33,3.34,28.51,1.56,31.48-2.09,1.98-11.32,4.09-13.36,2.81-4.47-9.62-8.04-21.22-18.12-26.37-14.51-7.42-32.33-3.83-48.04-4.46v164.48c1.06,7.9,2.43,15.75,9.66,20.35,8.14,5.19,15.82,1,13.29,16.11l-92.96.62-.53-11.61c8.36-3.24,16.41-4.74,19.83-14.17.9-2.47,2.71-11.01,2.71-13.29v-162.5Z"/>
      <path class="cls-1" d="M861.41,846.01c.65,2.62-.86,1.75-1.88,2.58-69.44,56-154.14,5.9-230.62,1.43-31.01-1.81-62.53,3.93-92.49,10.98,8.67-6.54,20.4-10.63,30.78-13.71,36.94-10.95,75.58-11.2,113.57-6.14,41.2,5.49,83.09,20.42,125.13,17.85,19.02-1.17,37.83-6.26,55.5-12.99Z"/>
      <path class="cls-1" d="M925.42,742.02c-14.43,10.57-35.08,17.01-52.77,19.72-52.57,8.04-105.47-13.16-158.71-9.71-31.62,2.05-62.76,13.75-91.51,25.98,14.81-15.67,36.65-26.81,57.21-33.28,72.67-22.86,135.4,10.24,207.28,5.28,13.02-.9,25.88-5.15,38.51-7.98Z"/>
    </g>
  </g>
</svg>