<svg xmlns="http://www.w3.org/2000/svg" viewBox="0 0 512 512" fill="#7dd3fc" stroke="none">
<g transform="translate(0,512) scale(0.1,-0.1)">
<path d="M2462 5094 c-54 -27 -91 -66 -113 -119 -8 -19 -14 -113 -18 -249 l-6 -219 -100 -17 c-266 -45 -521 -147 -749 -301 -60 -41 -115 -78 -123 -84 -10 -7 -51 28 -165 142 -188 186 -222 205 -330 182 -40 -9 -62 -22 -103 -63 -43 -42 -55 -60 -64 -103 -23 -109 -5 -142 182 -331 114 -114 149 -155 142 -165 -188 -252 -324 -551 -375 -827 -12 -63 -24 -125 -26 -137 -4 -22 -6 -22 -237 -25 l-234 -3 -41 -27 c-78 -52 -120 -167 -93 -251 20 -58 66 -113 118 -138 45 -22 62 -24 267 -29 l219 -5 17 -100 c45 -266 147 -521 301 -749 41 -60 78 -115 84 -123 7 -10 -28 -51 -142 -165 -186 -189 -205 -222 -182 -330 16 -74 93 -151 167 -167 108 -23 141 -4 330 182 114 114 155 149 165 142 8 -6 63 -43 123 -84 228 -154 483 -256 749 -301 l100 -17 5 -219 c5 -203 7 -222 29 -267 25 -51 65 -87 124 -112 107 -44 241 16 288 130 8 19 14 113 18 249 l6 219 100 17 c266 45 521 147 749 301 60 41 115 78 123 84 10 7 51 -28 165 -142 84 -83 169 -159 188 -169 46 -23 134 -23 182 0 47 22 92 68 114 115 23 47 22 136 0 181 -10 19 -86 104 -169 188 -114 114 -149 155 -142 165 201 268 334 569 385 872 l17 100 219 5 c205 5 222 7 267 29 52 25 98 80 118 138 27 84 -15 199 -93 251 l-41 27 -234 3 c-231 3 -233 3 -237 25 -2 12 -14 74 -26 137 -51 276 -187 575 -375 827 -7 10 28 51 142 165 83 84 159 169 169 188 22 45 23 134 0 181 -23 48 -73 98 -116 117 -48 20 -137 19 -180 -2 -19 -10 -104 -86 -188 -169 -114 -114 -155 -149 -165 -142 -8 6 -63 43 -123 84 -228 154 -483 256 -749 301 l-100 17 -6 219 c-4 136 -10 230 -18 249 -22 54 -63 97 -115 121 -68 32 -128 31 -194 -2z m146 -144 c21 -20 22 -28 22 -225 l0 -205 -70 0 -70 0 0 205 c0 197 1 205 22 225 12 11 34 20 48 20 14 0 36 -9 48 -20z m140 -591 c285 -31 564 -130 795 -281 429 -282 709 -709 803 -1223 25 -138 25 -451 1 -585 -53 -291 -156 -536 -324 -773 -70 -98 -281 -313 -378 -385 -232 -171 -498 -285 -790 -338 -140 -25 -450 -25 -590 0 -815 148 -1416 787 -1504 1598 -77 702 273 1388 894 1753 323 190 720 275 1093 234z m-1661 -222 l142 -140 -52 -53 -52 -53 -138 137 c-76 75 -143 148 -148 160 -18 47 38 110 86 96 11 -3 84 -69 162 -147z m3177 123 c11 -11 19 -32 19 -50 0 -27 -20 -52 -143 -175 l-144 -144 -53 52 -53 52 138 138 c75 76 146 142 157 147 25 11 55 3 79 -20z m-3664 -1705 l0 -75 -178 0 c-185 0 -235 7 -258 37 -20 26 -17 66 6 91 20 21 28 22 225 22 l205 0 0 -75z m4350 53 c23 -25 26 -65 6 -91 -23 -30 -73 -37 -258 -37 l-178 0 0 75 0 75 205 0 c197 0 205 -1 225 -22z m-3865 -1627 c-124 -125 -148 -144 -175 -144 -41 0 -73 32 -73 73 0 27 20 52 143 175 l143 144 53 -52 53 -52 -144 -144z m3198 -71 c0 -41 -32 -73 -73 -73 -27 0 -52 20 -175 143 l-144 144 52 53 52 53 144 -144 c124 -125 144 -149 144 -176z m-1653 -515 c0 -197 -1 -205 -22 -225 -28 -26 -68 -26 -96 0 -21 20 -22 28 -22 225 l0 205 70 0 70 0 0 -205z"/>
<path d="M2512 4200 c-47 -44 -15 -130 48 -130 38 0 70 34 70 75 0 41 -32 75 -70 75 -14 0 -36 -9 -48 -20z"/>
<path d="M2385 3909 c-161 -21 -352 -85 -497 -168 -617 -353 -858 -1112 -558 -1758 126 -271 353 -504 626 -641 84 -42 242 -96 349 -118 121 -25 383 -26 505 -1 422 84 777 353 968 733 42 84 96 242 118 349 25 122 26 383 1 507 -89 449 -388 818 -806 999 -214 92 -470 127 -706 98z m245 -409 l0 -270 -70 0 -70 0 0 270 0 270 70 0 70 0 0 -270z m-300 -29 l0 -279 -32 -11 -32 -11 -193 192 -194 193 23 19 c27 22 157 88 231 117 39 16 146 48 195 58 1 1 2 -125 2 -278z m641 226 c79 -30 216 -98 247 -123 l23 -19 -194 -193 -193 -192 -32 11 -32 11 0 278 0 278 59 -13 c32 -8 87 -25 122 -38z m-1021 -424 l186 -188 -53 -51 -52 -50 -188 188 -187 187 24 27 c31 35 73 73 80 74 3 0 89 -84 190 -187z m1440 163 c14 -12 36 -35 50 -50 l24 -27 -187 -187 -188 -188 -52 50 -53 51 186 188 c101 103 187 187 190 187 3 0 16 -11 30 -24z m-1454 -620 l-15 -36 -273 2 -273 3 3 30 c9 80 107 317 165 399 l20 28 194 -194 195 -195 -16 -37z m1701 291 c46 -92 99 -240 105 -292 l3 -30 -273 -3 -273 -2 -15 36 -16 37 194 194 193 194 19 -23 c10 -13 38 -63 63 -111z m-936 -43 c175 -52 311 -188 363 -363 9 -32 16 -91 16 -141 0 -146 -50 -269 -151 -369 -100 -101 -223 -151 -369 -151 -146 0 -269 50 -369 151 -101 100 -151 223 -151 369 0 233 136 421 360 497 81 28 219 31 301 7z m-813 -506 l-3 -73 -265 0 -265 0 -3 73 -3 72 271 0 271 0 -3 -72z m1880 0 l-3 -73 -265 0 -265 0 -3 73 -3 72 271 0 271 0 -3 -72z m-1829 -260 l11 -32 -192 -193 -193 -194 -19 23 c-47 58 -135 261 -161 369 l-13 59 278 0 278 0 11 -32z m1796 -27 c-26 -108 -114 -311 -161 -369 l-19 -23 -193 194 -192 193 11 32 11 32 278 0 278 0 -13 -59z m-1786 -425 l-187 -189 -29 24 c-16 13 -39 36 -52 52 l-24 29 187 187 187 187 52 -50 53 -51 -187 -189z m1490 -113 c-13 -16 -36 -39 -52 -52 l-29 -24 -187 187 -187 187 50 52 51 53 189 -187 189 -187 -24 -29z m-1140 206 l31 -11 0 -278 0 -278 -59 13 c-106 25 -289 104 -365 158 l-28 20 193 193 c107 107 194 194 195 194 1 0 15 -5 33 -11z m750 -183 l193 -193 -28 -20 c-76 -54 -259 -133 -365 -158 l-59 -13 0 278 0 278 28 10 c15 6 29 11 32 11 3 1 92 -86 199 -193z m-419 -136 l0 -270 -70 0 -70 0 0 270 0 270 70 0 70 0 0 -270z"/>
<path d="M2455 2919 c-49 -28 -60 -84 -25 -119 17 -17 33 -20 105 -20 95 0 139 -16 186 -67 43 -46 59 -87 59 -153 0 -66 -16 -107 -59 -153 -84 -91 -238 -91 -322 0 -47 50 -59 85 -59 178 0 72 -3 88 -20 105 -41 41 -111 15 -126 -45 -12 -49 1 -188 24 -238 29 -65 113 -151 181 -184 50 -25 67 -28 161 -28 94 0 111 3 161 28 67 32 151 118 182 184 18 40 22 66 22 153 0 127 -17 171 -96 255 -77 81 -140 109 -259 113 -59 1 -103 -2 -115 -9z"/>
<path d="M1415 3750 c-49 -19 -64 -82 -30 -120 24 -26 79 -26 105 0 53 53 -6 148 -75 120z"/>
<path d="M3660 3753 c-51 -19 -68 -85 -30 -123 45 -45 123 -13 123 51 0 46 -52 86 -93 72z"/>
<path d="M920 2608 c-43 -47 -10 -118 55 -118 41 0 75 32 75 70 0 63 -86 95 -130 48z"/>
<path d="M4090 2608 c-43 -47 -10 -118 55 -118 41 0 75 32 75 70 0 63 -86 95 -130 48z"/>
<path d="M1385 1490 c-25 -27 -23 -76 3 -102 26 -26 75 -28 102 -3 26 24 26 79 0 105 -26 26 -81 26 -105 0z"/>
<path d="M3630 1490 c-45 -45 -13 -123 51 -123 61 0 96 77 54 123 -24 26 -79 26 -105 0z"/>
<path d="M2512 1030 c-47 -44 -15 -130 48 -130 38 0 70 34 70 75 0 41 -32 75 -70 75 -14 0 -36 -9 -48 -20z"/>
</g>
</svg>
