<svg xmlns="http://www.w3.org/2000/svg" viewBox="0 0 512 512" fill="#7dd3fc" stroke="none">
<g transform="translate(0,512) scale(0.1,-0.1)">
<path d="M2435 5114 c-77 -12 -195 -37 -240 -51 -84 -26 -226 -94 -315 -151 -95 -61 -287 -247 -335 -324 l-30 -48 -187 0 c-104 0 -188 -1 -188 -3 0 -1 40 -205 90 -451 l90 -449 -43 -46 c-82 -88 -117 -175 -117 -290 0 -111 33 -193 108 -273 56 -61 116 -96 195 -118 l60 -16 22 -60 c61 -162 117 -237 365 -485 280 -281 297 -289 650 -289 353 0 370 8 650 289 248 248 304 323 365 485 l22 60 60 16 c79 22 139 57 195 118 75 80 108 162 108 273 0 115 -35 202 -117 290 l-43 46 90 449 c50 246 90 450 90 451 0 2 -84 3 -187 3 l-188 0 -30 48 c-48 77 -240 263 -335 324 -211 135 -408 196 -650 203 -69 2 -138 1 -155 -1z m301 -175 c228 -40 449 -160 603 -325 l65 -69 -422 -3 c-232 -1 -612 -1 -844 0 l-422 3 65 69 c151 162 373 283 594 324 70 13 290 14 361 1z m1044 -562 c0 -2 -29 -149 -65 -327 -36 -178 -65 -325 -65 -327 0 -2 -490 -3 -1089 -3 l-1090 0 -11 58 c-6 31 -14 67 -17 80 l-5 22 1016 0 1016 0 0 85 0 85 -1033 0 -1033 0 -29 148 c-15 81 -30 155 -33 165 -4 16 59 17 1217 17 671 0 1221 -1 1221 -3z m-313 -1089 c-3 -233 -7 -271 -26 -336 -24 -81 -57 -153 -104 -222 -44 -66 -425 -448 -472 -473 -38 -21 -52 -22 -305 -22 -253 0 -267 1 -305 22 -47 25 -428 407 -472 473 -47 69 -80 141 -104 222 -19 65 -23 103 -26 336 l-5 262 912 0 912 0 -5 -262z m-1977 13 c0 -222 -1 -229 -19 -224 -33 8 -100 73 -123 117 -51 96 -18 235 71 303 73 56 71 62 71 -196z m2211 196 c89 -68 122 -207 71 -303 -23 -44 -90 -109 -123 -117 -18 -5 -19 2 -19 224 0 258 -2 252 71 196z"/>
<path d="M1820 2096 l0 -54 -382 -128 c-414 -138 -504 -177 -622 -272 -145 -118 -258 -297 -302 -477 -15 -63 -194 -1123 -194 -1150 0 -13 234 -15 2240 -15 2006 0 2240 2 2240 15 0 27 -179 1087 -194 1150 -44 180 -157 359 -302 477 -118 95 -208 134 -621 272 l-383 128 0 54 0 54 -80 0 -80 0 0 -114 0 -114 140 -47 141 -47 -19 -31 c-11 -18 -97 -175 -193 -351 -134 -247 -180 -323 -203 -337 -17 -11 -75 -42 -129 -70 -77 -40 -106 -49 -137 -47 l-39 3 175 320 c96 176 193 352 214 391 l39 72 -71 37 c-61 33 -73 36 -82 23 -6 -9 -101 -180 -211 -382 -110 -201 -202 -366 -205 -366 -3 0 -95 165 -205 366 -110 202 -205 373 -211 382 -9 13 -21 10 -82 -23 l-71 -37 39 -72 c21 -39 118 -215 214 -391 l175 -320 -39 -3 c-31 -2 -60 7 -137 47 -54 28 -112 59 -129 70 -23 14 -69 90 -203 337 -96 176 -182 333 -193 351 l-19 31 141 47 140 47 0 114 0 114 -80 0 -80 0 0 -54z m-138 -576 c75 -137 134 -250 131 -250 -11 0 -673 352 -678 360 -5 8 364 138 395 139 10 1 63 -86 152 -249z m2111 184 c108 -36 195 -69 192 -74 -5 -8 -667 -360 -678 -360 -3 0 56 113 131 250 75 138 141 250 147 250 5 0 99 -30 208 -66z m-2280 -465 c304 -161 562 -298 575 -306 23 -14 22 -14 -37 -58 -102 -75 -182 -195 -215 -322 -11 -43 -16 -108 -16 -222 l0 -161 -285 0 c-209 0 -285 3 -285 12 0 6 16 168 35 361 20 192 34 351 32 353 -2 2 -38 7 -80 12 -74 8 -78 7 -82 -12 -2 -12 -18 -165 -35 -341 -16 -176 -33 -335 -36 -352 l-5 -33 -285 0 -284 0 5 23 c3 12 39 225 80 472 87 526 94 552 172 674 43 67 160 191 181 191 7 0 262 -131 565 -291z m2739 224 c93 -95 146 -183 184 -303 8 -25 48 -247 89 -495 41 -247 77 -460 80 -472 l5 -23 -284 0 -285 0 -5 33 c-3 17 -20 176 -36 352 -17 176 -33 329 -35 341 -4 19 -8 20 -82 12 -42 -5 -78 -10 -80 -12 -2 -2 12 -161 32 -353 19 -193 35 -355 35 -361 0 -9 -76 -12 -285 -12 l-285 0 0 161 c0 114 -5 179 -16 222 -33 127 -113 247 -215 322 -41 30 -56 46 -47 52 51 33 1136 602 1148 603 9 0 45 -30 82 -67z m-1612 -718 l0 -85 -80 0 -80 0 0 85 0 85 80 0 80 0 0 -85z m-332 -130 c-3 -133 -5 -143 -35 -207 -40 -86 -113 -160 -195 -198 -101 -48 -98 -50 -98 93 0 201 26 290 113 384 53 57 87 81 156 109 l56 23 3 -32 c2 -18 2 -95 0 -172z m627 150 c95 -55 174 -170 194 -279 6 -33 11 -115 11 -183 0 -143 3 -141 -98 -93 -82 38 -155 112 -195 198 -32 66 -32 69 -35 239 l-4 173 43 -15 c24 -9 62 -26 84 -40z m-275 -317 c14 -68 72 -185 116 -237 l36 -41 -252 0 -252 0 36 41 c44 52 102 169 116 237 l12 52 88 0 88 0 12 -52z"/>
</g>
</svg>
