<svg xmlns="http://www.w3.org/2000/svg" viewBox="0 0 512 512" fill="#7dd3fc" stroke="none">
<g transform="translate(0,512) scale(0.1,-0.1)">
<path d="M4451 4904 c-21 -26 -21 -34 -21 -671 0 -355 -3 -643 -7 -641 -327 158 -710 228 -1418 259 -304 13 -1108 7 -1350 -11 -909 -65 -1352 -232 -1447 -543 -20 -67 -21 -84 -15 -336 12 -506 68 -796 212 -1086 191 -388 512 -590 970 -611 152 -7 231 7 329 59 60 31 164 125 222 200 l29 38 105 -35 c283 -94 497 -94 779 1 100 33 106 34 118 16 78 -110 173 -196 259 -234 91 -41 162 -52 294 -46 269 13 494 87 668 221 68 52 181 169 219 228 l28 42 3 -80 c2 -43 2 -230 0 -414 l-3 -335 -27 -52 c-35 -66 -85 -116 -151 -151 l-52 -27 -625 0 c-617 0 -626 0 -671 21 -69 32 -128 91 -161 159 l-28 60 86 5 c96 6 114 18 114 76 0 64 4 64 -465 64 l-422 0 -21 -23 c-29 -30 -28 -62 3 -92 22 -23 32 -25 114 -25 l89 0 7 -52 c42 -311 282 -579 600 -670 80 -23 81 -23 750 -23 623 0 675 1 740 19 294 78 516 298 601 596 18 62 19 149 22 2069 l2 2004 -22 24 c-21 23 -25 23 -229 23 l-208 0 -20 -26z m337 -2066 l-3 -1953 -27 -78 c-72 -214 -232 -373 -445 -445 l-78 -27 -630 -3 c-722 -3 -726 -3 -883 74 -191 93 -335 287 -368 495 l-7 39 110 0 110 0 19 -62 c35 -116 121 -220 226 -274 104 -53 116 -54 756 -54 646 0 664 1 762 57 62 35 145 118 180 178 59 103 60 120 60 720 l0 547 25 82 c32 106 60 243 80 391 19 139 34 620 23 712 -8 73 -43 152 -93 210 l-35 41 0 651 0 651 110 0 110 0 -2 -1952z m-1728 872 c879 -42 1378 -184 1480 -422 22 -52 22 -57 17 -353 -7 -391 -32 -573 -112 -812 -141 -423 -418 -657 -842 -714 -326 -43 -472 54 -655 439 -194 409 -244 491 -333 550 -62 41 -115 55 -190 50 -155 -10 -250 -113 -400 -437 -147 -317 -183 -379 -272 -473 -119 -124 -245 -159 -468 -128 -363 51 -607 222 -760 535 -136 276 -186 554 -189 1035 l-1 275 30 54 c117 211 554 343 1295 391 236 15 268 16 750 18 239 1 532 -3 650 -8z m-543 -1417 c71 -33 135 -138 288 -476 32 -70 56 -130 53 -133 -3 -3 -37 -16 -74 -29 -228 -78 -456 -78 -679 2 -38 14 -71 26 -72 27 -4 4 171 383 206 446 37 68 95 136 135 161 38 23 97 24 143 2z"/>
<path d="M1930 3533 c-586 -25 -968 -82 -1205 -177 -110 -44 -170 -87 -197 -139 -20 -40 -21 -50 -15 -267 13 -458 62 -714 178 -940 137 -266 366 -408 689 -427 92 -5 111 -3 150 14 106 47 160 125 311 446 125 265 183 358 277 449 111 107 207 144 358 136 130 -7 219 -49 318 -151 88 -91 140 -177 261 -437 118 -253 144 -298 220 -376 75 -78 110 -89 246 -80 248 16 448 109 584 273 69 83 154 254 189 378 59 208 90 506 84 802 l-3 182 -35 36 c-140 146 -592 241 -1305 275 -185 9 -928 11 -1105 3z m1300 -152 c479 -39 760 -92 938 -177 l72 -35 0 -172 c0 -497 -83 -857 -243 -1058 -103 -129 -315 -219 -517 -219 -111 0 -132 28 -338 460 -119 251 -208 378 -331 470 -99 75 -201 111 -331 117 -193 9 -326 -43 -466 -182 -117 -116 -183 -225 -324 -535 -71 -157 -134 -263 -177 -301 l-37 -32 -95 6 c-411 26 -618 262 -694 792 -21 140 -39 443 -35 560 l3 90 50 28 c180 99 576 168 1130 197 213 11 1224 4 1395 -9z"/>
</g>
</svg>
